<?xml version="1.0" encoding="iso-8859-1"?>
<!-- Generator: Adobe Illustrator 19.0.0, SVG Export Plug-In . SVG Version: 6.00 Build 0)  -->
<svg version="1.1" id="Layer_1" xmlns="http://www.w3.org/2000/svg" xmlns:xlink="http://www.w3.org/1999/xlink" x="0px" y="0px"
	 viewBox="0 0 511.99 511.99" style="enable-background:new 0 0 511.99 511.99;" xml:space="preserve">
<g>
	<g>
		<g>
			<path d="M498.237,13.857c-23.467-23.467-69.12-12.8-103.253,0.32c-35.947,13.76-75.093,36.907-93.12,54.933
				c-4.16,4.16-4.16,10.88,0,15.04l56,56c-1.067,0.427-2.027,1.067-2.773,1.92l-16.427,16.427l-48.427-48.427
				c-4.267-4.053-10.987-3.947-15.04,0.213c-3.947,4.16-3.947,10.667,0,14.827l48.427,48.427l-16.853,16.96l-64.427-64.427
				c-4.267-4.053-10.987-3.947-15.04,0.213c-3.947,4.16-3.947,10.667,0,14.827l64.427,64.427l-16.96,16.96l-72.427-72.427
				c-4.267-4.053-10.987-3.947-15.04,0.213c-3.947,4.16-3.947,10.667,0,14.827l72.427,72.427l-16.96,16.853l-80.427-80.427
				c-4.373-3.947-11.093-3.52-15.04,0.853c-3.627,4.053-3.627,10.133,0,14.187l80.427,80.427l-16.96,16.96l-72.427-72.427
				c-4.053-4.267-10.88-4.373-15.04-0.213c-4.16,4.16-4.373,10.88-0.213,15.04c0.107,0.107,0.213,0.213,0.213,0.213l72.427,72.427
				l-16.96,16.96l-56.427-56.427c-4.053-4.267-10.88-4.373-15.04-0.213c-4.267,4.053-4.373,10.88-0.213,15.04
				c0.107,0.107,0.213,0.213,0.213,0.213l56.427,56.427l-16.96,16.96l-40.427-40.427c-4.267-4.053-10.987-3.947-15.04,0.213
				c-3.947,4.16-3.947,10.667,0,14.827l40.427,40.427l-16.853,16.853l-16.533-16.427c-4.373-3.947-11.093-3.733-15.04,0.64
				c-3.733,4.053-3.733,10.347,0,14.4l15.04,15.04l-89.28,15.04c-5.867,0.96-9.707,6.4-8.853,12.267
				c0.32,2.24,1.387,4.267,3.093,5.867l80.213,79.787c2.027,2.027,4.693,3.093,7.573,3.093c5.227,0,9.707-3.733,10.56-8.96
				l14.72-89.173l15.04,15.04c4.48,3.84,11.2,3.413,15.04-1.067c3.52-4.053,3.52-10.027,0-14.08l-16.427-16.427l16.96-16.853
				l40.427,40.427c4.267,4.053,10.987,3.947,15.04-0.213c3.947-4.16,3.947-10.667,0-14.827l-40.427-40.427l16.96-16.96
				l56.427,56.427c4.267,4.053,10.987,3.947,15.04-0.213c3.947-4.16,3.947-10.667,0-14.827l-56.427-56.427l16.96-16.853
				l72.427,72.427c4.267,4.053,10.987,3.947,15.04-0.213c3.947-4.16,3.947-10.667,0-14.827l-72.427-72.427l16.96-16.96
				l80.427,80.427c4.373,3.947,11.093,3.52,15.04-0.853c3.627-4.053,3.627-10.133,0-14.187l-80.427-80.427l16.853-16.853
				l72.427,72.427c4.267,4.053,10.987,3.947,15.04-0.213c3.947-4.16,3.947-10.667,0-14.827l-72.427-72.427l16.96-16.96
				l56.427,56.427c4.267,4.053,10.987,3.947,15.04-0.213c3.947-4.16,3.947-10.667,0-14.827l-56.427-56.427l16.96-16.96
				l48.427,48.427c4.16,4.16,10.88,4.16,15.147,0c4.16-4.16,4.16-10.88,0-15.147l-48.427-48.427l16.427-16.427
				c0.747-0.853,1.387-1.813,1.813-2.773l56,56c4.16,4.16,10.88,4.16,15.04,0C474.45,178.87,540.37,55.884,498.237,13.857z
				 M83.837,479.137l-50.773-50.56l60.8-10.24L83.837,479.137z M435.197,187.19L325.01,77.004
				c16.64-13.333,46.08-30.933,77.653-42.987C430.61,23.35,453.97,19.404,469.33,22.39c-0.96,8.107-6.293,40.747-29.12,66.453
				c-3.947,4.373-3.52,11.2,0.96,15.04c4.373,3.947,11.2,3.52,15.04-0.96c20.053-22.613,28.587-49.067,32.213-65.387
				C500.157,70.71,464.424,151.244,435.197,187.19z"/>
			<path d="M401.064,48.95c-8.32,8.32-8.32,21.867,0,30.187c8.32,8.32,21.867,8.32,30.187,0c8.32-8.32,8.32-21.867,0-30.187
				C422.93,40.63,409.384,40.63,401.064,48.95z"/>
		</g>
	</g>
</g>
<g>
</g>
<g>
</g>
<g>
</g>
<g>
</g>
<g>
</g>
<g>
</g>
<g>
</g>
<g>
</g>
<g>
</g>
<g>
</g>
<g>
</g>
<g>
</g>
<g>
</g>
<g>
</g>
<g>
</g>
</svg>
